<svg width="75" height="49" viewBox="0 0 75 49" fill="none" xmlns="http://www.w3.org/2000/svg">
<path d="M33.7332 40.5739V0.943532C32.4062 0.620205 31.0196 0.441681 29.5914 0.441681C29.5577 0.441681 29.524 0.445649 29.4903 0.445649V22.8266C30.1528 23.1658 30.611 23.8482 30.611 24.6436C30.611 25.7743 29.6946 26.6907 28.5639 26.6907C27.4333 26.6907 26.5168 25.7743 26.5168 24.6436C26.5168 23.8482 26.9751 23.1658 27.6376 22.8266V0.560695C25.8742 0.757072 24.194 1.21925 22.629 1.90161V13.7596C23.2915 14.0988 23.7477 14.7811 23.7477 15.5746C23.7477 16.7052 22.8313 17.6217 21.7007 17.6217C20.57 17.6217 19.6536 16.7052 19.6536 15.5746C19.6536 14.7792 20.1118 14.0968 20.7743 13.7576V2.84184C17.2395 4.91074 14.5042 8.17773 13.1136 12.0914L33.7332 40.5739Z" fill="url(#paint0_linear_4_61)"/>
<path d="M39.916 23.0448H57.1872V9.7527C55.9534 8.71726 54.5233 7.91192 52.9562 7.40015V16.4216C53.6187 16.7608 54.077 17.4431 54.077 18.2386C54.077 19.3692 53.1605 20.2856 52.0299 20.2856C50.8992 20.2856 49.9828 19.3692 49.9828 18.2386C49.9828 17.4431 50.441 16.7608 51.1035 16.4216V6.94987C50.4132 6.83482 49.7091 6.75945 48.987 6.75945C47.787 6.75945 46.6325 6.94194 45.5316 7.25336V16.4196C46.1941 16.7588 46.6523 17.4411 46.6523 18.2366C46.6523 19.3672 45.7359 20.2836 44.6052 20.2836C43.4746 20.2836 42.5582 19.3672 42.5582 18.2366C42.5582 17.4411 43.0164 16.7608 43.6789 16.4196V7.59851C42.6236 6.16437 41.3541 4.90478 39.92 3.8495V23.0448H39.916Z" fill="url(#paint1_linear_4_61)"/>
<path d="M57.1872 29.2297H39.916V48.7523H43.6115V36.4837C42.9489 36.1445 42.4907 35.4622 42.4907 34.6687C42.4907 33.5381 43.4072 32.6217 44.5378 32.6217C45.6685 32.6217 46.5849 33.5381 46.5849 34.6687C46.5849 35.4641 46.1267 36.1465 45.4642 36.4857V48.7543H51.0361V36.4857C50.3736 36.1465 49.9154 35.4641 49.9154 34.6687C49.9154 33.5381 50.8318 32.6217 51.9624 32.6217C53.0931 32.6217 54.0095 33.5381 54.0095 34.6687C54.0095 35.4641 53.5513 36.1445 52.8888 36.4857V48.7543H57.1813V29.2297H57.1872Z" fill="url(#paint2_linear_4_61)"/>
<path d="M19.8956 43.2002C19.2331 42.861 18.7749 42.1787 18.7749 41.3832C18.7749 40.2526 19.6913 39.3362 20.822 39.3362C21.9526 39.3362 22.869 40.2526 22.869 41.3832C22.869 42.1787 22.4108 42.861 21.7483 43.2002V48.7523H32.0154L15.8134 26.3694V48.7127C16.0732 48.7246 16.3271 48.7523 16.5889 48.7523H19.8956V43.2002Z" fill="url(#paint3_linear_4_61)"/>
<path d="M63.3721 19.8433V28.8508H66.2324C66.5716 28.1883 67.254 27.7301 68.0494 27.7301C69.1801 27.7301 70.0965 28.6465 70.0965 29.7772C70.0965 30.9078 69.1801 31.8243 68.0494 31.8243C67.254 31.8243 66.5716 31.366 66.2324 30.7035H63.3721V37.8346H66.2324C66.5716 37.172 67.254 36.7138 68.0494 36.7138C69.1801 36.7138 70.0965 37.6303 70.0965 38.7609C70.0965 39.8916 69.1801 40.808 68.0494 40.808C67.254 40.808 66.5716 40.3498 66.2324 39.6873H63.3721V48.4409C70.0112 47.0623 74.9999 41.1809 74.9999 34.1332C74.9999 27.0914 70.0092 21.2239 63.3721 19.8433Z" fill="url(#paint4_linear_4_61)"/>
<path d="M9.63039 38.0409H6.87318C6.53398 38.7034 5.85162 39.1616 5.0562 39.1616C3.92555 39.1616 3.00912 38.2452 3.00912 37.1145C3.00912 35.9839 3.92555 35.0674 5.0562 35.0674C5.85162 35.0674 6.532 35.5257 6.87318 36.1882H9.63237V29.0591H6.87318C6.53398 29.7216 5.85162 30.1798 5.0562 30.1798C3.92555 30.1798 3.00912 29.2634 3.00912 28.1328C3.00912 27.0021 3.92555 26.0857 5.0562 26.0857C5.85162 26.0857 6.53398 26.5439 6.87318 27.2064H9.63237V17.1178C3.94736 19.7481 0 25.4906 0 32.1654C0 38.8403 3.95133 44.5788 9.63237 47.213V38.0409H9.63039Z" fill="url(#paint5_linear_4_61)"/>
<defs>
<linearGradient id="paint0_linear_4_61" x1="11.6957" y1="-15.9533" x2="59.8112" y2="0.506095" gradientUnits="userSpaceOnUse">
<stop stop-color="#009AF1"/>
<stop offset="1" stop-color="#6AC9FF"/>
</linearGradient>
<linearGradient id="paint1_linear_4_61" x1="38.7284" y1="-3.99222" x2="71.8575" y2="15.8541" gradientUnits="userSpaceOnUse">
<stop stop-color="#009AF1"/>
<stop offset="1" stop-color="#6AC9FF"/>
</linearGradient>
<linearGradient id="paint2_linear_4_61" x1="38.7284" y1="21.2534" x2="72.1528" y2="40.939" gradientUnits="userSpaceOnUse">
<stop stop-color="#009AF1"/>
<stop offset="1" stop-color="#6AC9FF"/>
</linearGradient>
<linearGradient id="paint3_linear_4_61" x1="14.6992" y1="17.2254" x2="48.9706" y2="33.7422" gradientUnits="userSpaceOnUse">
<stop stop-color="#009AF1"/>
<stop offset="1" stop-color="#6AC9FF"/>
</linearGradient>
<linearGradient id="paint4_linear_4_61" x1="62.5725" y1="8.16052" x2="90.8116" y2="15.8053" gradientUnits="userSpaceOnUse">
<stop stop-color="#009AF1"/>
<stop offset="1" stop-color="#6AC9FF"/>
</linearGradient>
<linearGradient id="paint5_linear_4_61" x1="-0.662371" y1="4.82325" x2="23.3543" y2="9.94113" gradientUnits="userSpaceOnUse">
<stop stop-color="#009AF1"/>
<stop offset="1" stop-color="#6AC9FF"/>
</linearGradient>
</defs>
</svg>
