<?xml version="1.0" encoding="UTF-8" standalone="no"?>
<!DOCTYPE svg PUBLIC "-//W3C//DTD SVG 1.1//EN" "http://www.w3.org/Graphics/SVG/1.1/DTD/svg11.dtd">
<svg xmlns="http://www.w3.org/2000/svg" version="1.1" viewBox="0.00 0.00 1024.00 1024.00">
<path fill="#0f3250" fill-opacity="0.996" d="
  M 471.07 270.72
  Q 471.69 270.47 472.31 270.41
  Q 482.84 269.47 489.08 268.49
  Q 493.90 267.73 498.75 268.05
  C 499.82 268.12 501.37 267.61 502.75 267.60
  Q 512.53 267.52 522.26 267.80
  Q 523.66 267.84 525.00 267.87
  Q 530.12 267.96 535.67 268.64
  Q 547.51 270.07 557.52 271.93
  Q 597.31 279.31 631.63 297.90
  Q 649.40 307.53 666.53 320.53
  Q 680.31 330.98 694.22 345.49
  Q 701.30 352.86 707.37 360.66
  Q 746.49 410.91 756.58 475.83
  Q 756.94 478.12 757.08 480.66
  C 757.21 482.85 758.00 484.89 757.96 487.06
  Q 757.87 491.32 758.41 495.61
  Q 758.95 499.86 758.96 503.86
  Q 759.01 516.82 758.87 527.30
  Q 758.86 527.79 758.60 528.21
  Q 758.34 528.65 758.33 529.13
  Q 758.30 545.81 754.10 565.27
  Q 744.39 610.26 719.53 647.97
  Q 708.03 665.43 694.29 680.75
  Q 690.92 684.51 686.71 685.99
  Q 684.13 686.90 681.19 686.40
  Q 677.69 685.81 675.43 683.88
  Q 671.04 680.14 669.07 674.99
  Q 668.63 673.84 668.82 671.31
  Q 668.95 669.54 669.94 667.89
  Q 671.37 665.53 672.17 664.67
  C 695.21 639.76 713.12 610.26 723.06 577.96
  Q 725.90 568.77 727.79 558.97
  Q 733.84 527.65 731.92 495.67
  Q 731.79 493.51 731.45 491.39
  Q 731.12 489.29 730.93 487.14
  Q 729.16 467.39 723.31 448.30
  Q 702.31 379.73 644.35 337.66
  C 630.50 327.61 614.79 318.09 598.72 311.32
  Q 576.57 302.00 554.73 298.12
  C 553.49 297.89 552.31 298.03 551.09 297.69
  Q 547.93 296.80 544.73 296.97
  A 1.02 1.00 -24.4 0 1 543.99 296.70
  C 543.79 296.52 543.46 296.35 543.19 296.33
  Q 537.53 296.06 532.04 295.37
  Q 528.21 294.90 522.10 294.98
  C 520.38 295.01 519.19 294.35 517.56 294.28
  Q 514.00 294.13 510.50 294.39
  Q 508.74 294.51 506.99 294.28
  C 505.34 294.06 504.05 294.68 502.45 294.56
  Q 500.24 294.39 498.15 294.73
  C 495.05 295.24 492.01 294.80 488.90 295.27
  Q 484.48 295.93 480.07 296.09
  Q 478.36 296.15 476.86 296.59
  C 475.35 297.04 473.84 296.84 472.28 297.15
  Q 451.19 301.37 437.58 306.17
  Q 410.14 315.85 382.15 334.73
  Q 380.16 336.07 378.33 336.28
  C 376.04 336.54 373.61 336.11 371.70 334.72
  Q 364.76 329.66 363.16 327.30
  Q 361.59 324.96 359.50 323.01
  A 2.26 2.25 -46.9 0 1 359.40 319.80
  Q 361.14 317.96 363.18 316.42
  Q 410.88 280.36 470.13 270.99
  Q 470.61 270.92 471.07 270.72
  Z"
/>
<ellipse fill="#0f3250" fill-opacity="0.996" cx="0.00" cy="0.00" transform="translate(512.75,351.34) rotate(95.0)" rx="12.63" ry="12.37"/>
<circle fill="#0f3250" fill-opacity="0.996" cx="469.27" cy="351.48" r="12.44"/>
<circle fill="#0f3250" fill-opacity="0.996" cx="556.52" cy="351.46" r="12.44"/>
<path fill="#0f3250" fill-opacity="0.996" d="
  M 289.80 407.60
  Q 292.96 400.82 296.27 394.90
  Q 300.75 386.90 305.81 378.84
  Q 316.64 361.57 329.89 347.59
  Q 333.39 343.89 337.88 343.06
  C 344.83 341.76 352.44 348.40 354.70 354.38
  C 355.92 357.59 353.63 361.27 351.62 363.59
  C 342.42 374.24 333.62 384.98 326.20 396.73
  Q 305.23 429.94 297.52 470.98
  Q 296.08 478.63 295.20 486.79
  Q 294.83 490.23 294.42 493.49
  Q 294.02 496.72 293.99 499.82
  Q 293.87 510.27 294.02 527.30
  Q 294.03 529.02 294.27 530.68
  Q 294.49 532.26 294.65 533.84
  Q 297.92 567.37 308.17 593.18
  Q 322.37 628.94 348.52 659.12
  Q 381.28 696.94 426.87 716.85
  Q 445.39 724.94 465.20 729.06
  C 466.02 729.23 466.57 729.80 467.36 729.84
  C 470.38 729.99 473.27 730.77 476.25 731.27
  Q 482.50 732.31 489.41 733.20
  C 499.76 734.54 510.28 734.10 520.58 734.08
  C 526.17 734.07 531.58 733.10 537.19 732.73
  Q 538.33 732.65 539.47 732.23
  C 540.42 731.88 541.72 732.08 542.78 731.94
  Q 573.81 727.97 602.47 714.97
  Q 613.67 709.88 621.58 705.47
  Q 630.07 700.72 638.49 695.68
  Q 643.84 692.48 649.46 694.23
  Q 651.21 694.77 652.96 696.27
  Q 654.43 697.53 656.05 698.71
  Q 661.12 702.40 663.58 708.55
  A 0.96 0.94 -40.8 0 1 663.51 709.42
  Q 662.44 711.21 660.82 712.35
  C 628.32 735.25 592.10 751.08 553.09 757.50
  C 550.47 757.93 547.89 758.02 545.26 758.55
  Q 541.89 759.23 538.21 759.11
  C 536.97 759.07 536.00 759.69 534.77 759.75
  Q 518.63 760.48 501.88 760.28
  C 501.01 760.27 500.01 759.81 499.25 759.87
  Q 494.04 760.28 488.90 759.56
  Q 486.00 759.15 483.58 759.04
  Q 480.91 758.91 478.25 758.56
  Q 468.77 757.31 459.61 755.58
  C 447.78 753.36 437.32 749.67 425.78 745.40
  Q 401.50 736.41 381.11 722.67
  C 363.91 711.07 347.22 697.48 333.06 682.04
  Q 308.79 655.57 292.25 623.16
  Q 285.88 610.68 281.20 597.23
  Q 274.10 576.84 270.25 555.59
  C 269.85 553.40 270.03 551.43 269.39 549.22
  C 268.77 547.11 269.12 544.78 268.63 542.55
  C 267.79 538.64 268.08 534.35 267.49 530.17
  Q 267.11 527.50 267.07 525.04
  Q 266.88 514.83 267.03 504.23
  Q 267.09 499.61 267.62 495.41
  Q 268.01 492.38 268.07 489.21
  Q 268.12 486.27 268.56 482.94
  Q 269.40 476.64 270.16 471.22
  Q 270.95 465.49 272.28 459.80
  Q 274.99 448.14 278.83 435.83
  Q 283.25 421.68 289.80 407.60
  Z"
/>
<path fill="#0f3250" fill-opacity="0.996" d="
  M 643.25 476.06
  Q 639.33 476.85 634.78 477.60
  C 632.65 477.95 630.48 477.87 628.47 478.43
  C 625.67 479.21 622.90 478.76 620.07 479.55
  Q 617.58 480.24 615.24 479.99
  A 1.96 1.96 0.0 0 0 613.06 481.94
  L 613.05 498.00
  Q 613.05 498.69 612.36 498.64
  Q 612.17 498.62 612.02 498.50
  Q 611.54 498.12 610.97 498.36
  C 608.45 499.38 605.87 498.93 603.29 499.67
  C 601.94 500.06 600.60 499.96 599.22 500.20
  Q 593.59 501.18 587.88 502.05
  A 0.75 0.75 0.0 0 1 587.02 501.31
  Q 587.00 466.32 587.01 439.43
  Q 587.01 437.02 587.55 434.52
  C 587.99 432.48 588.14 430.40 588.71 428.46
  Q 591.62 418.70 595.92 412.72
  Q 608.99 394.52 632.23 393.86
  Q 636.80 393.73 642.11 395.38
  Q 648.13 397.26 651.88 399.64
  Q 666.83 409.12 669.93 427.26
  Q 670.62 431.28 670.49 451.25
  Q 670.37 470.45 670.50 489.42
  Q 670.50 489.96 669.97 490.05
  Q 663.33 491.11 656.65 491.98
  Q 651.27 492.68 645.32 494.04
  Q 644.06 494.33 644.06 493.04
  L 644.05 476.71
  Q 644.05 475.89 643.25 476.06
  Z
  M 635.01 424.02
  C 634.63 423.81 634.35 423.88 633.89 423.56
  Q 633.48 423.27 632.99 423.16
  Q 628.48 422.14 624.99 423.44
  Q 618.55 425.83 615.29 432.49
  Q 613.69 435.75 613.84 440.04
  Q 614.05 446.46 613.86 452.99
  Q 613.84 453.72 614.54 453.54
  Q 617.66 452.76 620.77 452.90
  C 622.10 452.96 623.10 451.96 624.44 452.04
  C 627.32 452.23 630.11 451.25 632.98 450.86
  Q 638.30 450.13 643.42 449.02
  Q 643.92 448.92 643.95 448.40
  Q 644.29 441.31 643.80 436.17
  Q 643.04 428.39 635.01 424.02
  Z"
/>
<path fill="#0f3250" fill-opacity="0.996" d="
  M 548.30 488.02
  C 545.56 487.62 543.10 488.73 540.42 488.93
  C 538.53 489.08 536.71 489.06 534.87 489.55
  C 532.44 490.19 529.94 489.94 527.42 490.31
  Q 522.61 491.01 517.53 491.44
  A 1.51 1.51 0.0 0 0 516.15 492.94
  L 516.12 511.49
  Q 516.12 512.09 515.53 512.05
  Q 512.96 511.88 510.63 512.44
  C 508.23 513.03 505.86 512.82 503.49 513.46
  Q 502.11 513.83 500.66 513.96
  Q 495.50 514.42 490.56 515.43
  Q 490.01 515.54 490.01 514.98
  L 490.04 446.06
  Q 490.04 445.59 490.28 445.18
  C 491.07 443.79 490.85 442.17 491.33 440.65
  Q 492.07 438.28 492.72 435.92
  Q 493.36 433.62 494.36 431.44
  Q 503.11 412.34 523.09 406.42
  Q 524.52 405.99 526.01 405.95
  C 527.37 405.92 528.11 405.19 529.43 405.08
  Q 535.72 404.57 541.08 405.07
  Q 548.00 405.71 554.21 409.07
  Q 568.97 417.04 573.40 432.25
  Q 575.17 438.32 575.13 451.34
  Q 575.07 477.09 575.01 503.35
  A 0.54 0.53 -1.1 0 1 574.49 503.88
  Q 572.74 503.95 570.85 504.07
  C 568.52 504.21 566.54 505.11 564.15 505.02
  C 561.71 504.92 559.57 505.94 557.04 506.03
  C 554.54 506.12 552.02 506.89 549.49 507.23
  Q 548.92 507.31 548.92 506.73
  L 548.78 488.57
  Q 548.78 488.09 548.30 488.02
  Z
  M 545.99 461.78
  C 546.85 461.63 547.52 461.90 548.36 461.70
  Q 548.87 461.58 548.89 461.05
  Q 549.19 452.18 548.67 446.73
  Q 548.03 439.98 542.51 436.27
  Q 540.02 434.60 537.46 434.02
  Q 532.68 432.94 529.04 434.38
  Q 519.88 438.00 517.05 446.86
  Q 515.96 450.28 516.11 455.68
  Q 516.23 459.73 516.18 464.19
  Q 516.17 465.03 517.01 465.01
  C 520.52 464.94 523.75 463.96 527.25 463.96
  Q 528.98 463.97 530.64 463.46
  C 533.68 462.55 537.04 463.50 540.01 462.37
  C 541.74 461.71 544.09 462.12 545.99 461.78
  Z"
/>
<path fill="#0f3250" fill-opacity="0.996" d="
  M 371.09 462.16
  Q 370.98 462.96 370.98 463.75
  Q 370.94 497.50 370.97 532.17
  Q 370.97 532.72 370.44 532.87
  Q 366.01 534.12 361.42 534.04
  C 360.45 534.03 359.92 534.39 358.99 534.52
  Q 352.03 535.49 344.97 536.40
  Q 344.47 536.46 344.52 535.96
  Q 344.73 533.81 344.73 530.00
  Q 344.80 475.22 344.72 425.64
  Q 344.72 425.14 345.21 425.06
  Q 350.39 424.25 355.95 423.60
  Q 358.34 423.32 360.37 423.56
  C 363.30 423.91 366.38 423.80 369.14 424.98
  C 370.93 425.75 372.75 426.19 374.53 427.01
  Q 386.75 432.59 394.07 444.53
  Q 399.86 453.97 405.79 465.41
  A 0.59 0.59 0.0 0 0 406.83 465.41
  Q 412.74 454.09 419.83 442.11
  C 428.03 428.24 439.75 415.87 455.50 412.28
  Q 463.74 410.41 472.15 409.91
  C 472.91 409.87 473.51 409.72 474.18 409.33
  Q 474.93 408.89 474.93 409.75
  L 474.96 517.19
  Q 474.96 517.78 474.36 517.82
  C 471.90 517.99 469.41 517.91 466.94 518.37
  Q 461.66 519.35 456.25 519.99
  C 454.02 520.25 451.99 520.97 449.76 521.04
  Q 449.18 521.05 449.19 520.48
  Q 449.49 484.02 449.18 450.55
  C 449.17 449.36 449.73 448.50 449.20 447.29
  A 0.47 0.47 0.0 0 0 448.36 447.25
  Q 447.32 449.08 446.27 450.82
  Q 432.47 473.59 417.38 498.97
  C 415.31 502.45 412.71 507.00 409.00 508.59
  C 403.09 511.11 399.09 505.35 396.31 501.05
  Q 386.94 486.51 374.52 466.64
  Q 373.11 464.38 371.96 462.02
  Q 371.30 460.66 371.09 462.16
  Z"
/>
<path fill="#0f3250" fill-opacity="0.996" d="
  M 595.02 608.70
  L 595.03 649.74
  Q 595.03 650.25 594.52 650.30
  Q 581.88 651.66 569.45 653.86
  Q 568.98 653.94 568.98 653.47
  L 569.00 530.80
  A 1.38 1.36 -4.1 0 1 570.18 529.45
  L 594.51 526.05
  Q 595.03 525.98 595.03 526.51
  L 595.02 579.52
  Q 595.02 580.22 595.72 580.18
  Q 597.78 580.08 600.02 580.01
  C 603.13 579.91 605.85 578.81 609.00 578.95
  Q 610.10 579.00 611.15 578.54
  C 613.13 577.66 616.00 578.13 618.18 577.71
  Q 622.67 576.83 623.05 576.79
  Q 629.22 576.14 636.22 574.82
  A 0.83 0.82 -5.5 0 0 636.89 574.01
  L 636.84 520.82
  Q 636.84 520.32 637.32 520.19
  Q 643.10 518.70 649.44 517.95
  Q 656.02 517.17 662.39 516.23
  Q 662.93 516.15 662.93 516.69
  L 662.93 639.31
  Q 662.93 639.87 662.38 639.96
  Q 653.95 641.40 645.57 642.20
  C 645.24 642.23 644.99 642.38 644.73 642.57
  Q 644.28 642.90 643.72 642.87
  Q 640.72 642.73 637.65 643.84
  Q 636.89 644.12 636.88 643.31
  L 636.85 603.29
  A 0.59 0.58 -1.0 0 0 636.24 602.71
  Q 632.42 602.88 628.97 603.61
  C 626.85 604.05 624.77 603.92 622.71 604.46
  C 620.32 605.10 617.94 604.74 615.61 605.41
  C 612.77 606.23 610.02 605.81 607.09 606.63
  C 605.01 607.21 602.97 606.82 600.87 607.44
  Q 598.30 608.20 595.86 607.94
  Q 595.02 607.85 595.02 608.70
  Z"
/>
<path fill="#0f3250" fill-opacity="0.996" d="
  M 494.23 567.79
  L 494.22 593.15
  A 1.04 1.00 35.6 0 0 494.29 593.52
  Q 494.87 594.90 495.82 594.48
  Q 496.26 594.29 496.76 594.23
  Q 504.90 593.27 513.53 592.19
  Q 514.75 592.03 516.00 591.89
  Q 517.25 591.74 518.44 591.40
  C 520.35 590.86 522.25 591.08 524.22 590.60
  Q 527.41 589.82 530.73 589.94
  C 531.71 589.97 532.69 589.20 533.80 589.16
  Q 536.30 589.07 538.46 588.65
  Q 541.05 588.15 543.17 588.06
  Q 546.24 587.92 548.98 587.05
  Q 549.61 586.86 549.61 587.51
  L 549.62 613.00
  Q 549.62 613.63 549.01 613.71
  Q 546.30 614.06 543.22 613.99
  C 542.27 613.97 541.55 614.47 540.64 614.58
  Q 529.32 616.00 518.04 617.71
  C 515.94 618.02 513.90 617.90 511.86 618.56
  C 509.44 619.34 506.84 618.94 504.31 619.75
  C 502.90 620.21 501.33 619.85 499.81 620.25
  Q 497.47 620.85 495.28 620.91
  A 0.65 0.65 0.0 0 0 494.65 621.55
  L 494.52 637.27
  A 0.72 0.72 0.0 0 0 495.18 638.00
  C 497.70 638.23 500.08 637.31 502.62 637.03
  Q 511.37 636.06 520.71 634.54
  Q 523.19 634.13 525.58 634.02
  C 527.86 633.92 529.75 633.12 531.96 632.98
  C 534.52 632.81 536.99 631.97 539.53 631.99
  Q 541.32 632.00 542.99 631.54
  Q 544.99 631.00 547.11 630.97
  Q 548.79 630.94 550.26 630.32
  Q 550.94 630.04 550.94 630.78
  L 550.96 656.02
  Q 550.96 656.72 550.27 656.78
  C 547.83 657.01 545.33 656.87 542.94 657.47
  C 540.05 658.20 537.10 657.88 534.12 658.45
  C 530.95 659.06 527.80 658.93 524.65 659.67
  C 522.84 660.09 520.82 660.04 518.90 660.29
  Q 494.66 663.50 470.56 667.00
  C 469.92 667.10 469.25 667.23 468.74 667.66
  Q 468.03 668.26 468.04 667.33
  C 468.06 665.89 468.47 664.64 468.46 663.19
  Q 468.24 638.48 468.38 613.75
  C 468.51 590.83 467.98 567.81 468.28 545.19
  A 1.10 1.10 0.0 0 1 469.41 544.10
  Q 472.04 544.16 474.67 543.62
  Q 477.48 543.03 480.24 542.65
  Q 491.89 541.07 504.07 539.20
  Q 505.30 539.01 506.61 538.98
  C 508.14 538.94 509.33 538.22 510.83 538.14
  C 513.04 538.02 515.17 537.96 517.33 537.38
  C 519.60 536.77 521.94 537.01 524.25 536.38
  C 526.38 535.80 528.59 536.01 530.91 535.56
  Q 534.43 534.87 538.16 534.30
  C 540.58 533.93 542.81 534.17 545.22 533.51
  Q 547.61 532.84 550.26 532.94
  Q 550.78 532.95 550.78 533.48
  L 550.95 558.26
  A 1.59 1.58 -3.2 0 1 549.53 559.84
  C 547.38 560.05 545.31 559.81 543.20 560.42
  C 540.39 561.22 537.65 560.85 534.77 561.64
  C 532.63 562.22 530.35 561.91 528.17 562.47
  C 525.42 563.17 522.34 562.71 519.77 563.63
  C 518.43 564.12 517.10 563.83 515.74 564.06
  C 512.17 564.65 508.60 564.99 505.06 565.67
  Q 503.07 566.05 501.01 566.13
  Q 498.07 566.24 494.82 567.04
  Q 494.23 567.18 494.23 567.79
  Z"
/>
<path fill="#0f3250" fill-opacity="0.996" d="
  M 399.50 581.81
  Q 395.88 581.75 392.55 582.46
  Q 390.19 582.96 387.94 583.03
  C 385.84 583.10 384.31 583.88 382.16 583.89
  Q 380.21 583.90 378.34 584.33
  Q 376.22 584.82 374.53 584.95
  Q 371.50 585.18 368.52 585.98
  A 0.45 0.44 82.5 0 1 367.96 585.55
  L 367.89 559.76
  Q 367.89 559.21 368.39 558.99
  C 371.35 557.66 374.68 558.23 377.67 557.46
  C 379.72 556.93 381.62 557.18 383.57 556.59
  C 385.93 555.89 388.13 556.23 390.41 555.65
  Q 391.76 555.31 393.24 555.10
  Q 400.45 554.05 407.61 553.13
  Q 410.03 552.82 412.29 552.37
  C 414.46 551.93 416.54 552.00 418.75 551.58
  Q 422.99 550.77 427.08 550.31
  Q 431.64 549.79 435.46 549.16
  Q 439.84 548.43 443.97 548.00
  C 446.41 547.74 448.42 546.90 450.88 546.91
  C 452.62 546.92 453.89 546.07 455.66 545.98
  A 1.16 1.16 0.0 0 1 456.88 547.14
  L 456.92 572.47
  Q 456.92 573.06 456.33 573.01
  Q 454.70 572.85 453.10 573.30
  C 449.62 574.30 446.06 573.91 442.49 574.68
  Q 435.15 576.27 427.20 576.29
  A 1.22 1.22 0.0 0 0 425.98 577.51
  L 425.98 672.96
  Q 425.98 673.95 425.00 673.91
  C 421.60 673.78 418.44 674.65 415.09 675.07
  Q 410.48 675.65 405.85 676.20
  C 404.04 676.41 402.45 677.14 400.54 677.05
  Q 400.04 677.03 400.04 676.53
  L 400.00 582.31
  Q 400.00 581.82 399.50 581.81
  Z"
/>
<path fill="#96b0c7" fill-opacity="0.992" d="
  M 531.93 682.65
  Q 532.04 682.55 532.18 682.47
  Q 532.34 682.38 532.53 682.37
  Q 537.52 682.01 542.40 681.86
  C 543.74 681.82 544.67 681.16 545.98 681.12
  C 549.12 681.03 553.37 680.59 556.37 681.65
  C 557.83 682.17 559.30 682.14 560.84 682.67
  Q 565.55 684.29 569.35 686.39
  Q 571.60 687.64 572.99 689.92
  C 575.53 694.06 573.11 699.41 569.38 701.65
  Q 566.82 703.19 563.52 703.05
  C 559.09 702.85 554.71 702.74 550.31 703.42
  Q 546.55 704.00 542.84 704.08
  C 541.29 704.11 539.88 704.66 538.32 704.80
  Q 525.53 705.94 512.65 707.59
  Q 510.46 707.87 508.35 708.07
  Q 506.25 708.27 504.07 708.53
  Q 494.67 709.65 486.50 710.27
  Q 486.35 710.28 486.22 710.35
  Q 486.06 710.43 485.93 710.53
  Q 485.82 710.62 485.68 710.64
  Q 476.07 711.57 469.39 711.08
  Q 465.32 710.77 460.89 708.31
  Q 456.07 705.63 455.89 701.29
  C 455.64 695.45 461.14 691.86 466.45 691.03
  Q 473.38 689.93 481.01 689.09
  Q 483.19 688.85 485.30 688.57
  Q 489.09 688.06 493.61 687.60
  C 494.40 687.52 495.07 687.16 495.82 687.15
  C 499.26 687.13 502.38 686.02 505.81 686.08
  C 508.17 686.12 510.15 685.10 512.46 685.09
  Q 514.55 685.08 516.42 684.53
  C 519.11 683.74 521.81 684.43 524.43 683.61
  C 526.64 682.92 528.94 683.13 531.20 682.96
  Q 531.62 682.93 531.93 682.65
  Z"
/>
</svg>
