<?xml version="1.0" encoding="utf-8"?>
<!-- Generator: Adobe Illustrator 27.3.1, SVG Export Plug-In . SVG Version: 6.00 Build 0)  -->
<svg version="1.1" id="Layer_1" xmlns="http://www.w3.org/2000/svg" xmlns:xlink="http://www.w3.org/1999/xlink" x="0px" y="0px"
	 viewBox="0 0 639 433" style="enable-background:new 0 0 639 433;" xml:space="preserve">
<style type="text/css">
	.st0{fill:#93AEC5;}
	.st1{fill:#FFFFFF;}
	.st2{fill:#FFB6B6;}
	.st3{fill:#E6E6E6;}
	.st4{fill:#3F3D56;}
	.st5{fill:#E4E4E4;}
	.st6{fill:#2F2E41;}
	.st7{fill:#0E304F;}
	.st8{fill:#FFB8B8;}
	.st9{fill:#9E616A;}
</style>
<g>
	<g>
		<path class="st0" d="M43,326.3c-3,0-6.1,0.1-9,0.4l-0.4,0C13.8,328.4-0.6,338.6,0,350.2l0.1,2.1c0.1,1.3,0.2,2.8,0.2,4.4
			c0,0.8,1.1,1.4,2.4,1.4h484.5c34.2-0.2,68.2-0.5,101.1-0.8c6.2,0,12.4-0.3,18.5-1c9.2-1.1,15.5-3.2,19.4-6.6h0
			c4.9-4.1,5-9.4,4.7-15.3c-0.6-11.9-1.2-24.4-1.8-36.9c-0.5-11-1-22-1.6-32.5c-0.3-6.2-1-11.7-6.6-15.9c-6-4.5-16.9-6.8-32.5-6.8
			c-0.2,0-0.4,0-0.6,0c-48.8,0.2-97.2,17-120.4,41.9c-2.7,2.9-5.2,5.9-7.6,8.9c-3.6,4.4-7.2,8.9-11.6,13c-2.4,2.2-4.9,4.2-7.7,6
			c-0.2,0.1-0.4,0.3-0.6,0.4c-0.5,0.3-1.1,0.7-1.6,1c-3.1,1.8-6.4,3.3-9.8,4.5l-0.3,0.1c-0.3,0.1-0.5,0.2-0.8,0.3
			c-2,0.6-4,1.2-6,1.6c-8.8,2-18.9,2.4-29.9,1.4c-10.1-1-20-3-29.7-6.1c-10.2-3.2-19.7-7.2-28.9-11.1c-4-1.7-8.2-3.5-12.4-5.1
			c-0.8-0.3-1.6-0.6-2.3-0.9c-5.1-2-9.7-3.6-14.1-5c-10.9-3.5-22.2-5.6-33.7-6.3c-12.1-0.7-22.8,0.6-31.8,3.7
			c-2.5,0.9-4.9,1.9-7.2,3.1c-10.6,5.5-17.1,13.7-23.5,21.5c-7.9,9.8-16,19.9-32.1,25.2c-18.5,6.1-45.6,3.5-64.7-0.8
			c-6-1.4-12-3-17.8-4.5c-2.3-0.6-4.7-1.2-7-1.8c-4.6-1.2-8.4-2.1-11.9-2.9l-1.1-0.2c-0.6-0.1-1.2-0.3-1.9-0.4
			c-4.2-0.9-8-1.6-11.8-2.1l-0.9-0.1c-1.8-0.2-3.5-0.4-5.2-0.6l-0.7-0.1C49.7,326.4,46.4,326.3,43,326.3z"/>
		<path class="st0" d="M544,339.3c13.6-12.3,33.9-18.5,50.9-11.6c-17.4,9.7-30.9,25.3-38,44c-2.7,7.2-5,15.5-11.6,19.4
			c-4.1,2.4-9.3,2.5-13.9,1.4c-4.6-1.2-8.9-3.5-13.1-5.8l-1.2,0C522.4,369.1,530.3,351.6,544,339.3z"/>
		<path class="st0" d="M594.8,328.1c-15.1,2-29.1,8.6-40.2,19c-2.4,2.2-4.5,4.8-6.1,7.6c-1.5,2.8-2.2,6-2.1,9.2c0.1,3,0.5,6-0.2,9
			c-0.4,1.5-1,2.9-2,4.1c-0.9,1.2-2.1,2.2-3.5,3c-3.3,1.9-7.1,2.5-10.9,3c-4.2,0.5-8.5,1-12.1,3.3c-0.4,0.3-0.9-0.4-0.4-0.7
			c6.3-4.1,14.2-2.6,21-5.3c3.1-1.3,5.9-3.5,6.9-6.9c0.9-2.9,0.4-6.1,0.3-9.1c-0.2-3.1,0.4-6.2,1.7-9.1c1.5-2.9,3.4-5.6,5.8-7.8
			c5.2-5.2,11.2-9.5,17.8-12.8c7.5-3.8,15.6-6.3,23.9-7.4C595.3,327.2,595.3,328,594.8,328.1z"/>
		<path class="st0" d="M557.9,343.6c-1.5-2.1-2.2-4.7-2-7.2c0.2-2.6,1.3-5,3.2-6.8c0.4-0.4,1,0.2,0.6,0.6c-1.7,1.7-2.7,3.9-2.9,6.3
			c-0.2,2.4,0.5,4.8,1.9,6.7C558.9,343.6,558.3,344,557.9,343.6z"/>
		<path class="st0" d="M546.2,362.4c5.2,0.9,10.5-0.2,14.9-3c0.4-0.3,0.9,0.4,0.4,0.7c-4.6,3-10.2,4.1-15.5,3.1
			C545.5,363.1,545.7,362.3,546.2,362.4z"/>
		<path class="st0" d="M578.5,331.9c0.4,0.9,1,1.7,1.8,2.4c0.8,0.6,1.7,1,2.7,1.2c0.5,0.1,0.3,0.9-0.2,0.8c-1.1-0.2-2.1-0.7-3-1.3
			c-0.9-0.7-1.6-1.6-2.1-2.6c-0.1-0.1-0.1-0.2,0-0.3c0-0.1,0.1-0.2,0.2-0.2c0.1-0.1,0.2-0.1,0.3,0
			C578.3,331.8,578.4,331.8,578.5,331.9z"/>
		<path class="st0" d="M613.6,387.1c-0.3,0-0.6-0.1-1-0.1c-4.3-0.6-8.7-0.8-13.1-0.7c-0.3,0-0.7,0-1,0c-10.5,0.4-20.9,2.8-30.6,7
			c-3.8,1.7-7.6,3.7-11.1,5.9c-4.9,3.1-10,6.9-15.4,8.1c-0.6,0.1-1.1,0.2-1.7,0.3l-22.6-19.6c0-0.1-0.1-0.1-0.1-0.2l-0.9-0.7
			c0.2-0.1,0.4-0.3,0.5-0.4c0.1-0.1,0.2-0.1,0.3-0.2c0.1,0,0.1-0.1,0.2-0.1c0,0,0,0,0.1,0c0.1,0,0.1-0.1,0.2-0.1
			c1-0.7,2.1-1.5,3.1-2.2c0,0,0,0,0,0c7.9-5.5,16.4-10.1,25.3-13.6c0.3-0.1,0.5-0.2,0.8-0.3c4-1.5,8.2-2.7,12.4-3.5
			c2.3-0.4,4.6-0.8,7-1c6.1-0.5,12.2-0.1,18.1,1.3c11.8,2.7,22.6,9.2,29,19.4C613.3,386.6,613.4,386.8,613.6,387.1z"/>
		<path class="st1" d="M613.3,387.3c-13.2-7.5-28.4-10.7-43.5-9.1c-3.3,0.3-6.4,1.1-9.5,2.4c-2.9,1.4-5.4,3.5-7.2,6.1
			c-1.7,2.4-3.2,5.1-5.5,7.1c-1.2,1-2.6,1.7-4,2.1s-3,0.5-4.6,0.3c-3.8-0.5-7.2-2.3-10.5-4.2c-3.6-2.1-7.4-4.4-11.7-4.7
			c-0.5,0-0.4-0.8,0.1-0.8c7.5,0.5,12.9,6.5,19.9,8.4c3.3,0.9,6.8,0.8,9.7-1.3c2.5-1.8,4-4.6,5.7-7.1c1.7-2.6,4.1-4.7,6.8-6.2
			c2.9-1.4,6.1-2.4,9.3-2.7c7.3-1,14.7-0.8,21.9,0.5c8.3,1.5,16.2,4.4,23.5,8.5C614.2,386.9,613.8,387.6,613.3,387.3z"/>
		<path class="st1" d="M574.6,377.5c0.1-2.6,1-5,2.8-7c1.7-1.9,4.1-3.2,6.6-3.5c0.5-0.1,0.6,0.7,0.1,0.8c-2.4,0.3-4.6,1.5-6.2,3.3
			c-1.6,1.8-2.5,4.1-2.6,6.5C575.4,378.1,574.6,378,574.6,377.5z"/>
		<path class="st1" d="M553.9,385.4c3.6,3.9,8.5,6.2,13.7,6.6c0.5,0,0.4,0.8-0.1,0.8c-5.5-0.4-10.5-2.9-14.3-6.9
			C552.9,385.5,553.5,385,553.9,385.4z"/>
		<path class="st1" d="M598,380.5c-0.2,1-0.2,2,0,3c0.3,1,0.8,1.9,1.5,2.6c0.4,0.4-0.3,0.9-0.6,0.5c-0.8-0.8-1.3-1.8-1.6-2.9
			c-0.3-1.1-0.3-2.2-0.1-3.3c0-0.1,0.1-0.2,0.2-0.3c0.1-0.1,0.2-0.1,0.3-0.1c0.1,0,0.2,0.1,0.3,0.1C597.9,380.3,598,380.4,598,380.5
			z"/>
		<path class="st0" d="M187.1,351.6c11.2-17,31.1-29.2,51.2-26.6c-16,15.2-26,35.7-28.4,57.6c-0.9,8.5-1,18-7.1,24
			c-3.8,3.7-9.2,5.3-14.5,5.3c-5.3,0.1-10.5-1.2-15.6-2.5l-1.3,0.3C172.3,389.4,175.9,368.5,187.1,351.6z"/>
		<path class="st0" d="M238.4,325.4c-15.6,6.3-28.8,17.3-37.7,31.6c-2,3-3.5,6.4-4.4,9.8c-0.8,3.4-0.7,7,0.3,10.4
			c0.9,3.2,2.2,6.3,2.3,9.6c0,1.7-0.3,3.4-0.9,5c-0.7,1.6-1.6,3-2.9,4.1c-3,3-6.9,4.7-10.8,6.2c-4.3,1.7-8.8,3.4-12,6.9
			c-0.4,0.4-1-0.2-0.6-0.6c5.6-6.1,14.5-6.7,21-11.5c3-2.2,5.4-5.4,5.5-9.3c0.1-3.4-1.2-6.6-2.2-9.8c-1.1-3.3-1.3-6.8-0.7-10.2
			c0.8-3.5,2.1-6.9,4-10c4.2-7,9.4-13.3,15.5-18.6c6.9-6.2,14.9-11.1,23.5-14.5C238.6,324.3,238.9,325.2,238.4,325.4z"/>
		<path class="st0" d="M203.2,352.2c-2.2-1.8-3.6-4.4-4.1-7.2c-0.5-2.8,0.1-5.7,1.5-8.1c0.3-0.5,1.1-0.1,0.8,0.4
			c-1.4,2.3-1.8,5-1.4,7.6c0.5,2.6,1.8,5,3.9,6.7C204.3,351.9,203.7,352.6,203.2,352.2z"/>
		<path class="st0" d="M195.9,375.6c5.8-0.5,11.2-3.1,15.1-7.4c0.4-0.4,1,0.2,0.6,0.6c-4.1,4.4-9.7,7.2-15.8,7.6
			C195.3,376.6,195.3,375.7,195.9,375.6z"/>
		<path class="st0" d="M221.9,334.1c0.7,0.9,1.6,1.6,2.6,2c1,0.4,2.2,0.6,3.3,0.5c0.6-0.1,0.6,0.8,0,0.9c-1.2,0.1-2.5-0.1-3.6-0.6
			c-1.1-0.5-2.1-1.3-2.9-2.2c-0.1-0.1-0.1-0.2-0.1-0.3c0-0.1,0-0.2,0.1-0.3c0.1-0.1,0.2-0.1,0.3-0.1
			C221.7,333.9,221.9,334,221.9,334.1z"/>
		<path class="st0" d="M274.9,383.2c-0.4,0-0.7,0.1-1.1,0.1c-4.8,0.6-9.5,1.6-14.2,2.9c-0.4,0.1-0.7,0.2-1.1,0.3
			c-11.1,3.4-21.6,8.8-30.7,16.1c-3.6,2.9-7.1,6-10.2,9.4c-4.4,4.7-8.7,10.1-14.2,13c-0.6,0.3-1.2,0.6-1.8,0.8l-29.6-14.7
			c-0.1-0.1-0.1-0.1-0.2-0.2l-1.2-0.5c0.2-0.2,0.3-0.4,0.5-0.6c0.1-0.1,0.2-0.2,0.3-0.3c0.1-0.1,0.1-0.1,0.2-0.2c0,0,0,0,0.1-0.1
			c0.1-0.1,0.1-0.1,0.2-0.2c0.9-1.1,1.8-2.1,2.7-3.2c0,0,0,0,0,0c7-8,14.7-15.5,23.3-21.7c0.3-0.2,0.5-0.4,0.8-0.6
			c3.9-2.7,8-5.1,12.3-7.2c2.4-1.1,4.8-2.1,7.2-3c6.3-2.3,13-3.5,19.7-3.7c13.4-0.4,26.8,3.6,36.4,12.6
			C274.4,382.8,274.6,383,274.9,383.2z"/>
		<path class="st1" d="M274.6,383.6c-16.2-4.4-33.4-3.5-49.1,2.4c-3.4,1.2-6.6,3-9.4,5.2c-2.7,2.2-4.8,5.2-6,8.5
			c-1.2,3.1-2,6.4-3.9,9.1c-1,1.4-2.3,2.5-3.7,3.4c-1.5,0.9-3.1,1.4-4.8,1.6c-4.2,0.6-8.4-0.4-12.4-1.6c-4.5-1.2-9.1-2.6-13.8-1.7
			c-0.6,0.1-0.7-0.8-0.1-0.9c8.1-1.5,15.6,3.4,23.7,3.4c3.8,0,7.5-1.1,10-4.1c2.1-2.6,3-6,4.2-9.1c1.1-3.3,3-6.2,5.5-8.5
			c2.7-2.4,5.8-4.2,9.2-5.5c7.5-3.1,15.5-4.9,23.6-5.5c9.2-0.7,18.5,0.1,27.5,2.6C275.5,382.9,275.2,383.7,274.6,383.6z"/>
		<path class="st1" d="M230.5,383.8c-0.6-2.8-0.3-5.7,1-8.2c1.3-2.5,3.5-4.5,6.1-5.6c0.5-0.2,0.9,0.6,0.4,0.8
			c-2.4,1-4.5,2.9-5.7,5.2c-1.2,2.4-1.5,5.1-0.9,7.7C231.5,384.2,230.6,384.4,230.5,383.8z"/>
		<path class="st1" d="M210.5,398.1c4.9,3.1,10.8,4.3,16.5,3.3c0.6-0.1,0.7,0.8,0.1,0.9c-6,1.1-12.1-0.2-17.2-3.4
			C209.5,398.5,210,397.8,210.5,398.1z"/>
		<path class="st1" d="M256.3,380.6c0,1.1,0.3,2.2,0.9,3.2c0.6,1,1.3,1.8,2.3,2.4c0.5,0.3,0,1-0.5,0.7c-1-0.7-1.9-1.6-2.5-2.7
			c-0.6-1.1-1-2.3-1-3.5c0-0.1,0-0.2,0.1-0.3c0.1-0.1,0.2-0.2,0.3-0.2c0.1,0,0.2,0,0.3,0.1C256.2,380.4,256.3,380.5,256.3,380.6z"/>
		<path class="st2" d="M266.6,224.4c0.7-0.7,1.3-1.6,1.7-2.6c0.4-1,0.5-2,0.4-3.1c-0.1-1-0.4-2.1-0.9-3c-0.5-0.9-1.2-1.7-2.1-2.3
			l11.7-56.6l-12.6,4l-9.4,54.7c-0.9,1.5-1.2,3.3-0.9,5c0.3,1.7,1.3,3.3,2.6,4.4c1.4,1.1,3.1,1.6,4.9,1.5
			C263.7,226.4,265.3,225.6,266.6,224.4z"/>
		<path class="st3" d="M293.5,73.2l-7.8-5.9c0,0-6.9-0.5-8.1,11.9c-1.2,12.4-8.8,60.1-8.8,60.1l-11.9,55.4l16.5,3.6l12.8-59.7
			l12.8-41.2L293.5,73.2z"/>
		<path class="st4" d="M287.6,175.6l-37.4-29.1c-0.6-0.5-1-1.1-1.1-1.9c-0.1-0.7,0.1-1.5,0.6-2.1l25.4-32.8c0.5-0.6,1.1-1,1.9-1.1
			c0.7-0.1,1.5,0.1,2.1,0.6l37.4,29.1c0.6,0.5,1,1.1,1.1,1.9c0.1,0.7-0.1,1.5-0.6,2.1l-25.4,32.8c-0.5,0.6-1.1,1-1.9,1.1
			C288.9,176.3,288.2,176.1,287.6,175.6z"/>
		<path class="st1" d="M287.4,172.6l-34.2-26.7c-0.5-0.4-0.9-1-0.9-1.6c-0.1-0.7,0.1-1.3,0.5-1.8l23.1-29.7c0.4-0.5,1-0.9,1.6-0.9
			c0.6-0.1,1.3,0.1,1.8,0.5l34.2,26.7c0.5,0.4,0.9,1,0.9,1.6c0.1,0.7-0.1,1.3-0.5,1.8l-23.1,29.7c-0.4,0.5-1,0.9-1.6,0.9
			C288.5,173.2,287.9,173,287.4,172.6z"/>
		<path class="st5" d="M257.6,145.2c-0.1-0.1-0.2-0.2-0.2-0.4c0-0.2,0-0.3,0.1-0.5l11.6-15c0.1-0.1,0.2-0.2,0.4-0.2
			c0.1,0,0.2,0,0.2,0c0.1,0,0.2,0.1,0.2,0.1c0.1,0.1,0.1,0.1,0.2,0.2c0,0.1,0.1,0.1,0.1,0.2c0,0.1,0,0.2,0,0.2
			c0,0.1-0.1,0.2-0.1,0.2l-11.6,15c-0.1,0.1-0.2,0.2-0.4,0.2C257.9,145.3,257.8,145.3,257.6,145.2z"/>
		<path class="st5" d="M259.6,146.7c-0.1-0.1-0.2-0.2-0.2-0.4c0-0.2,0-0.3,0.1-0.5l11.6-15c0.1-0.1,0.2-0.2,0.4-0.2
			c0.2,0,0.3,0,0.5,0.1c0.1,0.1,0.2,0.2,0.2,0.4c0,0.2,0,0.3-0.1,0.5l-11.6,15c-0.1,0.1-0.2,0.2-0.4,0.2
			C259.9,146.8,259.7,146.8,259.6,146.7z"/>
		<path class="st5" d="M268.1,139.7c-0.1-0.1-0.2-0.2-0.2-0.4c0-0.2,0-0.3,0.1-0.5l5-6.5c0-0.1,0.1-0.1,0.2-0.2
			c0.1,0,0.1-0.1,0.2-0.1c0.1,0,0.2,0,0.2,0c0.1,0,0.2,0.1,0.2,0.1s0.1,0.1,0.2,0.2c0,0.1,0.1,0.1,0.1,0.2c0,0.1,0,0.2,0,0.2
			c0,0.1-0.1,0.2-0.1,0.2l-5,6.5c-0.1,0.1-0.2,0.2-0.4,0.2C268.4,139.8,268.2,139.8,268.1,139.7z"/>
		<path class="st5" d="M270.7,152.4c-0.1-0.1-0.2-0.2-0.2-0.4c0-0.2,0-0.3,0.1-0.5l18.4-23.7c0-0.1,0.1-0.1,0.2-0.2
			c0.1,0,0.1-0.1,0.2-0.1c0.1,0,0.2,0,0.2,0c0.1,0,0.2,0.1,0.2,0.1c0.1,0.1,0.1,0.1,0.2,0.2c0,0.1,0.1,0.1,0.1,0.2
			c0,0.1,0,0.2,0,0.2c0,0.1-0.1,0.2-0.1,0.2l-18.4,23.7c-0.1,0.1-0.2,0.2-0.4,0.2C271,152.6,270.8,152.5,270.7,152.4z"/>
		<path class="st5" d="M272.6,153.9c-0.1-0.1-0.2-0.2-0.2-0.4c0-0.2,0-0.3,0.1-0.5l18.4-23.7c0-0.1,0.1-0.1,0.2-0.2
			c0.1,0,0.1-0.1,0.2-0.1c0.1,0,0.2,0,0.2,0c0.1,0,0.2,0.1,0.2,0.1c0.1,0.1,0.1,0.1,0.2,0.2s0.1,0.1,0.1,0.2c0,0.1,0,0.2,0,0.2
			c0,0.1-0.1,0.2-0.1,0.2l-18.4,23.7c-0.1,0.1-0.2,0.2-0.4,0.2C272.9,154.1,272.7,154,272.6,153.9z"/>
		<path class="st5" d="M277,157.4c-0.1-0.1-0.2-0.2-0.2-0.4c0-0.2,0-0.3,0.1-0.5l18.4-23.7c0.1-0.1,0.1-0.1,0.2-0.2
			c0.1,0,0.1-0.1,0.2-0.1c0.1,0,0.2,0,0.2,0c0.1,0,0.2,0.1,0.2,0.1s0.1,0.1,0.2,0.2c0,0.1,0.1,0.1,0.1,0.2c0,0.1,0,0.2,0,0.2
			c0,0.1-0.1,0.2-0.1,0.2l-18.4,23.7c-0.1,0.1-0.2,0.2-0.4,0.2C277.3,157.5,277.1,157.4,277,157.4z"/>
		<path class="st5" d="M278.9,158.9c-0.1-0.1-0.2-0.2-0.2-0.4c0-0.2,0-0.3,0.1-0.5l18.4-23.7c0-0.1,0.1-0.1,0.2-0.2
			c0.1,0,0.1-0.1,0.2-0.1c0.1,0,0.2,0,0.2,0c0.1,0,0.2,0.1,0.2,0.1c0.1,0.1,0.1,0.1,0.2,0.2c0,0.1,0.1,0.1,0.1,0.2
			c0,0.1,0,0.2,0,0.2c0,0.1-0.1,0.2-0.1,0.2l-18.4,23.7c-0.1,0.1-0.2,0.2-0.4,0.2C279.2,159,279,159,278.9,158.9z"/>
		<path class="st5" d="M283.3,162.3c-0.1-0.1-0.2-0.2-0.2-0.4c0-0.2,0-0.3,0.1-0.5l18.4-23.7c0-0.1,0.1-0.1,0.2-0.2
			c0.1,0,0.1-0.1,0.2-0.1c0.1,0,0.2,0,0.2,0c0.1,0,0.2,0.1,0.2,0.1c0.1,0.1,0.1,0.1,0.2,0.2c0,0.1,0.1,0.1,0.1,0.2
			c0,0.1,0,0.2,0,0.2c0,0.1-0.1,0.2-0.1,0.2l-18.4,23.7c-0.1,0.1-0.2,0.2-0.4,0.2C283.6,162.4,283.4,162.4,283.3,162.3z"/>
		<path class="st5" d="M285.2,163.8c-0.1-0.1-0.2-0.2-0.2-0.4c0-0.2,0-0.3,0.1-0.5l18.4-23.7c0.1-0.1,0.2-0.2,0.4-0.2
			c0.2,0,0.3,0,0.5,0.1c0.1,0.1,0.2,0.2,0.2,0.4c0,0.2,0,0.3-0.1,0.5l-18.4,23.7c-0.1,0.1-0.2,0.2-0.4,0.2
			C285.5,163.9,285.4,163.9,285.2,163.8z"/>
		<path class="st1" d="M254.5,191.3c0.1,0,0.3-0.1,0.3-0.3c0-0.1-0.1-0.3-0.3-0.3c-0.1,0-0.3,0.1-0.3,0.3
			C254.3,191.1,254.4,191.3,254.5,191.3z"/>
		<path class="st6" d="M291.5,16c-0.9,4.8-2.4,9.5-4.4,13.9c-11.5,24.3,21.2,16.4,32.9,16.4c12.8,0,25,6.7,23.1-23.2
			C342.4,10.4,332.8,0,320,0C309.1,0,293.8,4.9,291.5,16z"/>
		<path class="st2" d="M331.9,372.8h-10.9l-5.2-42h16.1V372.8z"/>
		<path class="st6" d="M337.7,391.7h-7.8l-1.4-7.4l-3.6,7.4h-20.7c-1,0-2-0.3-2.8-0.9c-0.8-0.6-1.4-1.4-1.7-2.4
			c-0.3-0.9-0.3-2,0-2.9c0.3-0.9,0.9-1.8,1.8-2.3l16.5-11.4v-7.5l17.4,1L337.7,391.7z"/>
		<path class="st2" d="M396.6,359l-8.7,6.5l-29.2-30.6l12.9-9.6L396.6,359z"/>
		<path class="st6" d="M412.4,370.7l-6.3,4.7l-5.5-5.1l1.5,8.1l-16.6,12.4c-0.8,0.6-1.8,0.9-2.8,0.9c-1,0-2-0.3-2.8-0.9
			c-0.8-0.6-1.4-1.4-1.7-2.4c-0.3-0.9-0.3-2,0-2.9l6.5-19.1l-4.4-6l14.6-9.6L412.4,370.7z"/>
		<path class="st2" d="M296.3,179.2l51.6-8.1l-10.3-31h-41.4V179.2z"/>
		<path class="st6" d="M344.6,155.8c0,0,20.6,17.9,11.1,68.8l-11.6,49.9l31.7,55.1l-16.1,8.8l-39-54.4l-17.9-42l-9.4-73.6
			L344.6,155.8z"/>
		<path class="st6" d="M312.6,254.1l-1.2,19.3l3.6,57.1l18,6.2l3.4-58.5L312.6,254.1z"/>
		<path class="st3" d="M307.1,52.7l20,0.8l8,13.2l18.2,3.6l-10.8,54.9l2,31.3l-18.1-0.1c-13-0.1-25.6,4.7-35.4,13.3l0.5-40.6
			l-7.8-30.3l1.7-31.8l14.6-1.8L307.1,52.7z"/>
		<path class="st2" d="M318.1,46.3c10.4,0,18.8-8.4,18.8-18.8s-8.4-18.8-18.8-18.8c-10.4,0-18.8,8.4-18.8,18.8
			S307.7,46.3,318.1,46.3z"/>
		<path class="st6" d="M305.4,8.3c3.3-2,7.1-3.1,10.9-3.2c3.9-0.1,7.7,0.9,11,2.9c3.3,1.9,6.1,4.7,8,8.1c1.9,3.4,2.9,7.2,2.8,11
			c-9.6,2.4-19.6,4.3-29.8,0.6l-2.4-5.9l-1.4,5.9c-3.1,1.3-6.2,2.4-9.3,0c-0.1-3.9,0.8-7.7,2.6-11.1
			C299.4,13.2,302.1,10.4,305.4,8.3z"/>
		<path class="st7" d="M349.7,194.5l2.5,23c0.2,0.6,0.5,1.1,1,1.4c0.5,0.4,1.1,0.6,1.7,0.6h11.7c0.6,0,1.2-0.2,1.7-0.6
			c0.5-0.4,0.8-0.9,1-1.4l2.1-17.7c0.6,0.3,1.3,0.4,1.9,0.4c0.7,0,1.3-0.2,1.9-0.5c0.6-0.3,1.1-0.8,1.5-1.3c0.4-0.6,0.6-1.2,0.7-1.9
			c0.1-0.7,0-1.4-0.2-2c-0.2-0.6-0.6-1.2-1.1-1.7c-0.5-0.5-1.1-0.8-1.7-1c-0.6-0.2-1.3-0.2-2-0.1c-0.3-0.3-0.6-0.6-1-0.7
			c-0.4-0.2-0.8-0.3-1.2-0.3h-18c-0.4,0-0.9,0.1-1.3,0.3c-0.4,0.2-0.7,0.5-1,0.8c-0.3,0.4-0.4,0.8-0.5,1.2
			C349.5,193.6,349.5,194,349.7,194.5z M371.7,198.7l1.3-4.2c0.1-0.5,0.2-1,0-1.5c0.1,0,0.1,0,0.2,0c0.8,0,1.6,0.3,2.2,0.9
			c0.6,0.6,0.9,1.3,0.9,2.2c0,0.8-0.3,1.6-0.9,2.2c-0.6,0.6-1.3,0.9-2.2,0.9C372.7,199.1,372.2,198.9,371.7,198.7z"/>
		<path class="st2" d="M367.3,219.5c-0.7-0.7-1.3-1.6-1.7-2.6c-0.4-1-0.5-2-0.4-3.1c0.1-1,0.4-2.1,0.9-3c0.5-0.9,1.2-1.7,2.1-2.3
			l-11.4-56.6l12.6,4l9.1,54.8c0.9,1.5,1.2,3.3,0.9,5c-0.3,1.7-1.3,3.3-2.7,4.4c-1.4,1.1-3.1,1.6-4.9,1.5
			C370.1,221.5,368.5,220.8,367.3,219.5z"/>
		<path class="st3" d="M345.3,76.2l7.8-5.9c0,0,6.9-0.5,8.1,11.9s8.8,60.1,8.8,60.1l11.9,55.4l-16.5,3.6l-12.8-59.7l-12.8-41.2
			L345.3,76.2z"/>
		<path class="st7" d="M278.1,127.8c2.4,0,4.4-2,4.4-4.4c0-2.4-2-4.4-4.4-4.4c-2.4,0-4.4,2-4.4,4.4
			C273.6,125.8,275.6,127.8,278.1,127.8z"/>
		<path class="st2" d="M137.3,424.1l9.2,0l4.4-35.5h-13.6L137.3,424.1z"/>
		<path class="st6" d="M135,421.1h2.6l10.1-4.1l5.4,4.1c3.1,0,6,1.2,8.2,3.4c2.2,2.2,3.4,5.1,3.4,8.2v0.4l-29.7,0V421.1z"/>
		<path class="st2" d="M173,418.3l9,2l12.1-33.7l-13.2-3L173,418.3z"/>
		<path class="st6" d="M171.3,414.8l2.5,0.6l10.8-1.8l4.4,5.2h0c3,0.7,5.6,2.5,7.2,5.1c1.6,2.6,2.2,5.7,1.5,8.7l-0.1,0.4l-28.9-6.5
			L171.3,414.8z"/>
		<path class="st6" d="M120.5,241.2l8.3,93.4c0,0-3.1,56.1,6.9,75.8h14.6l7.2-80.9l0.9-54.3l31.3,45.8L169.8,409l17.9,1.6l32.3-95.6
			l-35.5-89.7L120.5,241.2z"/>
		<path class="st8" d="M129.2,92.5c11.8,0,21.4-9.6,21.4-21.5s-9.6-21.5-21.4-21.5c-11.8,0-21.4,9.6-21.4,21.5
			S117.3,92.5,129.2,92.5z"/>
		<path class="st4" d="M166.9,113l-17.6-7.6l-8.6-9.1l-21.4,3.5l-5.7,9.8l-18.4,17.1l21.5,97.6l-0.7,21.3c0,0,13.8,6.2,73.6-8.1
			c0.7-0.2-0.8-0.9-0.8-0.9L166.9,113z"/>
		<path class="st6" d="M106.9,83.2c-0.1-0.2-0.3-0.4-0.4-0.6c-0.1,0.1-0.1,0.3-0.2,0.4L106.9,83.2z"/>
		<path class="st6" d="M150.5,55.3c-1.4-3.1-4-5.6-7.2-6.9c-3.1-1.3-6.7-1.3-9.8,0c-2.8-1.8-6-3.2-9.3-3.4c-3.3-0.2-6.8,1.1-8.9,3.8
			c-0.5,0.7-1,1.4-1.5,2c-1.6,1.5-4.1,1.3-6.3,1c1,0.8,2,1.7,2.9,2.5c-1.2,0.3-2.4,0.6-3.6,0.9c1.4,0.8,2.8,1.7,4.2,2.5
			c-4,2.4-5.8,7.7-5.4,12.5c0.5,4.5,2.6,8.7,5.3,12.4c1-2.2,0.8-4.8,0.8-7.3c0-2.6,0.4-5.6,2.5-7.1c1.4-1,3.2-1,4.9-1
			c8.6,0,17.2,0.6,25.7,1.6c1.2,0.1,2.3,0.4,3.3,1c1.9,1.3,2.3,4,2.4,6.3c1-3.9,1.5-7.8,1.5-11.8C152.3,61.2,151.7,58.2,150.5,55.3z
			"/>
		<path class="st1" d="M157.2,306.7c18.6,0,33.8-15.1,33.8-33.8S175.9,239,157.2,239c-18.6,0-33.8,15.1-33.8,33.8
			S138.6,306.7,157.2,306.7z"/>
		<path class="st4" d="M157.2,238.3c-1.7,0-3.5,0.1-5.2,0.4c-0.9,0.1-1.7,0.3-2.6,0.5c-6.2,1.4-11.9,4.6-16.5,9.1
			c-4.5,4.5-7.8,10.2-9.3,16.4c-1.5,6.2-1.3,12.7,0.7,18.8c2,6.1,5.6,11.5,10.4,15.7c0.6,0.5,1.2,1,1.8,1.4
			c4.4,3.3,9.5,5.5,14.9,6.4s10.9,0.5,16.1-1.1c5.2-1.6,10-4.5,13.9-8.3c3.9-3.8,6.8-8.6,8.5-13.7c1.7-5.2,2.2-10.7,1.4-16.1
			c-0.8-5.4-2.9-10.5-6.1-15c-3.2-4.4-7.4-8.1-12.3-10.5C168.1,239.6,162.7,238.3,157.2,238.3z M157.2,305.9c-7,0-13.9-2.2-19.5-6.4
			c-0.6-0.5-1.2-0.9-1.8-1.4c-4.7-4-8.3-9.3-10.1-15.2c-1.9-5.9-2.1-12.2-0.5-18.3c1.5-6,4.7-11.5,9.2-15.8s10.1-7.2,16.2-8.4
			c0.8-0.2,1.7-0.3,2.5-0.4c1.3-0.2,2.7-0.2,4-0.2c8.8,0,17.1,3.5,23.3,9.7c6.2,6.2,9.7,14.6,9.7,23.4s-3.5,17.2-9.7,23.4
			C174.4,302.4,166,305.9,157.2,305.9z"/>
		<path class="st7" d="M140.7,266.1h33.1c1.2,0,2.2-1,2.2-2.2v-0.1c0-1.2-1-2.2-2.2-2.2h-33.1c-1.2,0-2.2,1-2.2,2.2v0.1
			C138.5,265.1,139.4,266.1,140.7,266.1z"/>
		<path class="st7" d="M140.7,275.1h33.1c1.2,0,2.2-1,2.2-2.2v-0.1c0-1.2-1-2.2-2.2-2.2h-33.1c-1.2,0-2.2,1-2.2,2.2v0.1
			C138.5,274.1,139.4,275.1,140.7,275.1z"/>
		<path class="st7" d="M140.7,284.1h33.1c1.2,0,2.2-1,2.2-2.2v-0.1c0-1.2-1-2.2-2.2-2.2h-33.1c-1.2,0-2.2,1-2.2,2.2v0.1
			C138.5,283.1,139.4,284.1,140.7,284.1z"/>
		<path class="st9" d="M534.9,422.9l-9.6,0l-4.6-37.3l14.2,0L534.9,422.9z"/>
		<path class="st9" d="M489.3,422.9l-9.6,0l-4.6-37.3l14.2,0L489.3,422.9z"/>
		<path class="st6" d="M489.6,433l-29.7,0v-0.4c0-3.1,1.2-6,3.4-8.2c2.2-2.2,5.1-3.4,8.2-3.4h0l5.4-4.1l10.1,4.1h2.6L489.6,433z"/>
		<path class="st6" d="M536.5,433l-29.7,0v-0.4c0-3.1,1.2-6,3.4-8.2c2.2-2.2,5.1-3.4,8.2-3.4h0l5.4-4.1l10.1,4.1h2.6V433z"/>
		<path class="st6" d="M479.8,202.3l-14.7,89.4l4,13.3l-5.2,9.4l7.7,82.9l-3.1,6.9l8.7,5.4h17.7l0.9-75l4.4-11v-6.1l8.9-45.8
			l1.6,64.1l2.6,11l-2.2,7.9l2.8,5.5l7.6,51h19.9l-1.5-11.9c1.7-0.9,3.1-2.3,4-4.1c0.8-1.8,1.1-3.7,0.6-5.6l-1.1-5.2l2.6-15.4
			l4.7-85.9l-1.3-69.3l-23.3-17.8L479.8,202.3z"/>
		<path class="st9" d="M513.4,87.5c10.2,0,18.5-8.3,18.5-18.5c0-10.2-8.3-18.5-18.5-18.5c-10.2,0-18.5,8.3-18.5,18.5
			C494.9,79.2,503.2,87.5,513.4,87.5z"/>
		<path class="st9" d="M473,237.8c0.8-0.8,1.4-1.8,1.8-2.9c0.4-1.1,0.5-2.3,0.4-3.4c-0.1-1.2-0.5-2.3-1.1-3.3s-1.4-1.8-2.4-2.5
			l7.2-27.2l-13.8,4.7l-4.7,25.1c-1,1.7-1.3,3.7-0.9,5.6c0.4,1.9,1.5,3.6,3,4.8c1.6,1.2,3.5,1.7,5.4,1.6
			C469.9,240.1,471.7,239.2,473,237.8z"/>
		<path class="st3" d="M480.6,107.1l-3-0.6l-2.5,1.4c0,0-7.1,9.5-7.1,18.1s-8.7,92.2-8.7,92.2l15.7,7.1l12.6-65.4L480.6,107.1z"/>
		<path class="st6" d="M529.6,55.4c0,0,4.8-9.3-5.8-10.1c0,0-9.1-8.2-18.3-1.5c0,0-5,0-7.8,5.7c0,0-4-1.5-4.8,2.5c0,0-2.9,8.4,0,16
			c2.9,7.6,3.9,8.4,3.9,8.4s-4.8-15.9,6.8-16.7c11.6-0.8,24.6-8.1,25.6,1.2c1,9.3,2.4,11.5,2.4,11.5S540.7,59.2,529.6,55.4z"/>
		<path class="st1" d="M597.1,314.5c-1.4,0-2.7-0.5-3.8-1.4l-55.9-49.9c-1.1-1-1.8-2.4-1.9-3.9c-0.1-1.5,0.4-3,1.4-4.1l35.8-40.3
			c1-1.1,2.4-1.8,3.9-1.9s3,0.4,4.1,1.4l55.9,49.9c1.1,1,1.8,2.4,1.9,3.9c0.1,1.5-0.4,3-1.4,4.1l-35.8,40.3c-0.5,0.6-1.1,1-1.8,1.3
			c-0.7,0.3-1.4,0.5-2.2,0.6C597.3,314.5,597.2,314.5,597.1,314.5z"/>
		<path class="st4" d="M597.1,314.9c-1.5,0-2.9-0.5-4-1.5l-55.9-49.9c-1.2-1.1-1.9-2.6-2-4.2c-0.1-1.6,0.5-3.2,1.5-4.4l35.8-40.3
			c1.1-1.2,2.6-1.9,4.2-2c1.6-0.1,3.2,0.5,4.4,1.5l55.9,49.9c1.2,1.1,1.9,2.6,2,4.2c0.1,1.6-0.5,3.2-1.5,4.4l-35.8,40.3
			c-0.5,0.6-1.2,1.1-1.9,1.4c-0.7,0.3-1.5,0.5-2.3,0.6C597.3,314.9,597.2,314.9,597.1,314.9z M577,214c-0.6,0-1.3,0.1-1.9,0.4
			c-0.6,0.3-1.1,0.7-1.6,1.1l-35.8,40.3c-0.8,0.9-1.2,2.1-1.2,3.3c0.1,1.2,0.6,2.4,1.5,3.2l55.9,49.9c0.5,0.4,1,0.7,1.5,0.9
			c0.6,0.2,1.2,0.3,1.8,0.2c0.6,0,1.2-0.2,1.7-0.5c0.5-0.3,1-0.6,1.4-1.1l35.8-40.3c0.8-0.9,1.2-2.1,1.2-3.3
			c-0.1-1.2-0.6-2.4-1.5-3.2l-55.9-49.9C579.2,214.4,578.1,214,577,214z"/>
		<path class="st7" d="M617.4,276.3c-0.6,0-1.2-0.2-1.6-0.6l-43.9-39.2c-0.2-0.2-0.4-0.5-0.6-0.8c-0.1-0.3-0.2-0.6-0.2-0.9
			c0-0.3,0-0.6,0.1-1c0.1-0.3,0.3-0.6,0.5-0.8c0.2-0.2,0.5-0.4,0.8-0.6c0.3-0.1,0.6-0.2,0.9-0.2c0.3,0,0.6,0,1,0.1
			c0.3,0.1,0.6,0.3,0.8,0.5L619,272c0.4,0.3,0.6,0.8,0.8,1.3c0.1,0.5,0.1,1-0.1,1.5c-0.2,0.5-0.5,0.9-0.9,1.2
			S617.9,276.3,617.4,276.3z"/>
		<path class="st7" d="M609,285.8c-0.6,0-1.2-0.2-1.6-0.6L563.5,246c-0.2-0.2-0.4-0.5-0.6-0.8c-0.1-0.3-0.2-0.6-0.2-0.9
			c0-0.3,0-0.6,0.1-1c0.1-0.3,0.3-0.6,0.5-0.8c0.2-0.2,0.5-0.4,0.8-0.6c0.3-0.1,0.6-0.2,0.9-0.2c0.3,0,0.6,0,1,0.1
			c0.3,0.1,0.6,0.3,0.8,0.5l43.9,39.2c0.4,0.3,0.6,0.8,0.8,1.3c0.1,0.5,0.1,1-0.1,1.5c-0.2,0.5-0.5,0.9-0.9,1.2
			C610,285.6,609.5,285.8,609,285.8z"/>
		<path class="st7" d="M600.6,295.2c-0.6,0-1.2-0.2-1.6-0.6l-43.9-39.2c-0.2-0.2-0.4-0.5-0.6-0.8c-0.1-0.3-0.2-0.6-0.2-0.9
			c0-0.3,0-0.6,0.1-1c0.1-0.3,0.3-0.6,0.5-0.8c0.2-0.2,0.5-0.4,0.8-0.6c0.3-0.1,0.6-0.2,0.9-0.2c0.3,0,0.6,0,1,0.1
			c0.3,0.1,0.6,0.3,0.8,0.5l43.9,39.2c0.4,0.3,0.6,0.8,0.8,1.3c0.1,0.5,0.1,1-0.1,1.5s-0.5,0.9-0.9,1.2
			C601.6,295,601.1,295.2,600.6,295.2z"/>
		<path class="st9" d="M550.4,239.4c-0.6-1-0.9-2.1-1-3.3c-0.1-1.2,0.1-2.3,0.5-3.4c0.4-1.1,1.1-2.1,1.9-2.9
			c0.8-0.8,1.8-1.4,2.9-1.8l0-28.2L567,208l-1.9,25.5c0.5,1.9,0.3,3.9-0.5,5.6c-0.9,1.7-2.3,3.1-4.1,3.8c-1.8,0.7-3.8,0.8-5.6,0.1
			C552.9,242.4,551.4,241.1,550.4,239.4z"/>
		<path class="st3" d="M551.6,114.8l5.4-5.3l4,2.9c0,0,3.9,4.7,7.1,18.9c3.1,14.2,0,92.2,0,92.2l-17.3-2.4l2.4-41l-7.1-34.7
			L551.6,114.8z"/>
		<path class="st4" d="M559.6,110.8l-18.3-8.8l-12.4-11.6l-22.7-0.2l-7.3,9.5l-19.3,6.6l3.2,66.8l-2.2,5.1c0,0,1.5,1.4,2.2,2.2
			c0.7,0.8-1,7.3-1,7.3l-0.9,7.1l2.6,1.9l-3.4,4l-0.8,6.3c0,0,59.1-14.7,70.3,9.7c0.6,1.3-0.9-11.3-0.9-11.3l-1.5-9.2l1.4-8.3
			l2.2-2.2l-3.7-3.7l2.4-17.5L559.6,110.8z"/>
		<path class="st8" d="M143.8,258.9c0.5-1.2,0.7-2.4,0.6-3.6c-0.1-1.2-0.4-2.5-1-3.5c-0.6-1.1-1.4-2-2.4-2.8c-1-0.7-2.1-1.2-3.4-1.5
			l-4.1-30l-11.8,10.3l5.7,26.9c-0.3,2.1,0.2,4.2,1.4,5.9c1.2,1.7,2.9,3,5,3.5c2,0.5,4.2,0.3,6-0.7
			C141.6,262.5,143.1,260.8,143.8,258.9z"/>
		<path class="st4" d="M97.5,126.1l-3.2,0.6l-1.9,2.4c0,0-3.1,12.3,0.4,20.9c3.6,8.6,29.3,95,29.3,95l18.5,0.5l-14.4-70.1
			L97.5,126.1z"/>
		<path class="st8" d="M170.5,254.5c-0.9-0.9-1.5-2-1.9-3.2c-0.4-1.2-0.5-2.4-0.4-3.7c0.1-1.2,0.6-2.4,1.2-3.5
			c0.7-1.1,1.5-2,2.6-2.6l-7.4-29.3l14.8,5.2l4.7,27.1c1,1.8,1.4,4,0.9,6c-0.4,2-1.6,3.9-3.3,5.1c-1.7,1.2-3.8,1.8-5.8,1.6
			C173.9,257,172,256,170.5,254.5z"/>
		<path class="st4" d="M164.1,114l3.2-0.6l2.7,1.5c0,0,7.5,10.2,7.4,19.6c-0.1,9.3,8.1,99.1,8.1,99.1l-17,7.4l-12.7-70.4L164.1,114z
			"/>
	</g>
</g>
</svg>
