<?xml version="1.0" encoding="UTF-8"?>
<svg id="Layer_1" data-name="Layer 1" xmlns="http://www.w3.org/2000/svg" viewBox="0 0 860.12 488.92">
  <defs>
    <style>
      .cls-1 {
        fill: #fff;
      }

      .cls-2 {
        fill: #cacaca;
      }

      .cls-3 {
        fill: #3f3d56;
      }

      .cls-4, .cls-5 {
        fill: #93aec5;
      }

      .cls-6 {
        fill: #e6e6e6;
      }

      .cls-7 {
        fill: #0e304f;
      }

      .cls-5 {
        isolation: isolate;
        opacity: .2;
      }

      .cls-8 {
        fill: #f2f2f2;
      }
    </style>
  </defs>
  <path class="cls-6" d="m803.99,487.5h-217.35c-16.46-.02-29.81-13.36-29.83-29.83V114.83c.02-16.46,13.36-29.81,29.83-29.83h217.35c16.46.02,29.81,13.36,29.83,29.83v342.84c-.02,16.46-13.36,29.81-29.83,29.83Z"/>
  <path class="cls-1" d="m807.6,102.8h-221.36c-5.15,0-9.33,4.18-9.34,9.34v347.31c0,5.15,4.18,9.33,9.34,9.34h221.36c5.15,0,9.33-4.18,9.34-9.34V112.14c0-5.15-4.18-9.33-9.34-9.34Z"/>
  <path class="cls-6" d="m591.96,85.01c0-1.26,1.02-2.28,2.28-2.28h15.52c1.26,0,2.28,1.02,2.28,2.28,0,1.26-1.02,2.28-2.28,2.28h-15.52c-1.26,0-2.28-1.02-2.28-2.28Z"/>
  <path class="cls-6" d="m617.51,85.01c0-1.26,1.02-2.28,2.28-2.28h15.52c1.26,0,2.28,1.02,2.28,2.28,0,1.26-1.02,2.28-2.28,2.28h-15.52c-1.26,0-2.28-1.02-2.28-2.28Z"/>
  <path class="cls-6" d="m770.84,85.01c0-1.26,1.02-2.28,2.28-2.28h15.52c1.26,0,2.28,1.02,2.28,2.28,0,1.26-1.02,2.28-2.28,2.28h-15.52c-1.26,0-2.28-1.02-2.28-2.28Z"/>
  <path class="cls-8" d="m727.59,461.63c0,2.4-.05,4.79-.16,7.16h-141.2c-5.15,0-9.33-4.18-9.34-9.34v-174.82c86.86,14.03,150.69,89.02,150.69,177Z"/>
  <rect class="cls-7" x="665.8" y="192.06" width="61.34" height="14.09" rx="4.34" ry="4.34"/>
  <rect class="cls-6" x="632.33" y="220.24" width="128.28" height="14.09" rx="4.34" ry="4.34"/>
  <rect class="cls-6" x="632.33" y="248.43" width="128.28" height="14.09" rx="4.34" ry="4.34"/>
  <path class="cls-7" d="m735.79,445.05c-1.85.08-3.41-1.34-3.5-3.19-.05-.99.35-1.94,1.07-2.61l.23-.91c-.03-.07-.06-.15-.09-.22-1.94-4.57-7.21-6.71-11.78-4.77-2.17.92-3.9,2.66-4.8,4.84-2.71,6.53-6.17,13.08-7.02,19.98-.37,3.05-.22,6.15.47,9.15-6.37-13.9-9.68-29-9.7-44.29,0-3.84.21-7.67.64-11.48.35-3.13.84-6.23,1.47-9.31,3.41-16.72,10.75-32.38,21.39-45.72,5.15-2.81,9.32-7.13,11.94-12.39.95-1.89,1.62-3.9,1.99-5.98-.58.08-1.17.12-1.75.16-.18,0-.37.02-.55.03h-.07c-1.83.09-3.38-1.33-3.46-3.16-.04-.81.23-1.61.74-2.24.25-.31.5-.62.75-.93.38-.48.77-.94,1.15-1.42.04-.05.09-.09.12-.14.44-.54.88-1.08,1.32-1.62-.8-1.24-1.88-2.28-3.14-3.04-4.39-2.57-10.45-.79-13.63,3.18-3.18,3.97-3.78,9.55-2.68,14.51,1.09,4.22,2.88,8.23,5.32,11.85-.24.3-.49.6-.72.91-4.35,5.6-8.15,11.61-11.33,17.95.77-7.1-.15-14.29-2.69-20.96-2.58-6.22-7.41-11.46-11.67-16.84-5.11-6.46-15.6-3.64-16.5,4.55,0,.08-.02.16-.03.24.63.36,1.25.74,1.86,1.14,2.09,1.39,2.65,4.21,1.25,6.3-.71,1.06-1.83,1.77-3.08,1.97h-.09c.23,2.29.62,4.55,1.19,6.77,3.33,12.52,11.72,23.09,23.16,29.16.37.19.73.38,1.11.56-3.2,9.06-5.2,18.5-5.96,28.07-.43,5.65-.41,11.33.08,16.97l-.03-.2c-1.22-6.28-4.57-11.94-9.48-16.04-7.3-5.99-17.6-8.2-25.48-13.02-2.42-1.56-5.65-.85-7.2,1.57-.67,1.04-.94,2.28-.78,3.5.01.07.02.14.03.21,1.17.48,2.32,1.03,3.42,1.65.63.36,1.25.74,1.86,1.14,2.09,1.39,2.65,4.21,1.25,6.3-.71,1.06-1.83,1.77-3.08,1.97h-.09c-.07.02-.12.03-.19.04,2,4.79,4.82,9.19,8.32,13.03,8.74,9.38,20.95,14.74,33.77,14.82h0c1.72,7.48,4.22,14.76,7.44,21.73h26.58c.1-.3.18-.6.27-.9-2.46.15-4.93,0-7.36-.44,1.97-2.42,3.94-4.86,5.92-7.28.04-.05.09-.09.12-.14,1-1.24,2.01-2.47,3.01-3.71h0c.05-3.8-.38-7.59-1.3-11.27h0Zm-30.44-59.89v-.02s0,.04,0,.04v-.02Zm-5.89,53.08l-.23-.51c0-.37,0-.74,0-1.12,0-.1-.02-.21-.02-.31.09.66.16,1.32.26,1.97v-.02Z"/>
  <path class="cls-2" d="m796.53,133.47h-199.23c-.91-.02-1.63-.77-1.61-1.69.02-.88.73-1.59,1.61-1.61h199.23c.91.02,1.63.77,1.61,1.69-.02.88-.73,1.59-1.61,1.61Z"/>
  <ellipse class="cls-3" cx="607.93" cy="120.45" rx="4.85" ry="4.95"/>
  <ellipse class="cls-3" cx="624.67" cy="120.45" rx="4.85" ry="4.95"/>
  <ellipse class="cls-3" cx="641.41" cy="120.45" rx="4.85" ry="4.95"/>
  <path class="cls-3" d="m788.75,117.41h-10.85c-.45,0-.81.38-.8.84,0,.44.36.8.8.8h10.85c.45,0,.81-.38.8-.84,0-.44-.36-.8-.8-.8h0Z"/>
  <path class="cls-3" d="m788.75,120.49h-10.85c-.45,0-.81.38-.8.84,0,.44.36.8.8.8h10.85c.45,0,.81-.38.8-.84,0-.44-.36-.8-.8-.8h0Z"/>
  <path class="cls-3" d="m788.75,123.57h-10.85c-.45,0-.81.38-.8.84,0,.44.36.8.8.8h10.85c.45,0,.81-.38.8-.84,0-.44-.36-.8-.8-.8h0Z"/>
  <path class="cls-6" d="m465.49,284.77h-115.51c-3.4,0-6.16,2.77-6.15,6.17v182.47h127.83v-182.47c0-3.41-2.76-6.17-6.16-6.17h0Zm-57.37,103.68c-7.52-.04-13.6-6.12-13.64-13.64v-21.05c0-7.53,6.11-13.64,13.64-13.64s13.64,6.11,13.64,13.64v21.05c-.03,7.52-6.12,13.6-13.64,13.64h0Z"/>
  <path class="cls-7" d="m343.43,467.57v17.6c0,1.9,1.54,3.44,3.44,3.44h121.74c1.9,0,3.43-1.54,3.44-3.44v-17.6h-128.63Z"/>
  <path class="cls-6" d="m656.77,0H163.01c-8.83.01-15.99,7.17-16,16v333.19c0,8.83,7.17,15.99,16,16h493.76c8.83,0,15.99-7.17,16-16V16c-.01-8.83-7.17-15.99-16-16Z"/>
  <path class="cls-1" d="m652.64,11.56H167.13c-4.73.01-8.56,3.85-8.56,8.58v324.93c0,4.72,3.84,8.55,8.56,8.56h485.51c4.72,0,8.55-3.84,8.56-8.56V20.13c0-4.73-3.83-8.57-8.56-8.58Z"/>
  <path class="cls-7" d="m661.2,20.13v324.93c0,4.72-3.84,8.55-8.56,8.56h-171.2c-18.94-17.56-34.48-38.47-45.83-61.67-.75-1.49-1.46-3.01-2.14-4.54-10.35-22.45-16.61-46.57-18.5-71.22-.12-1.51-.23-3.02-.3-4.55-.23-3.91-.34-7.88-.34-11.87-.03-26.51,4.97-52.78,14.75-77.42.59-1.53,1.21-3.04,1.85-4.55,19.68-46.24,55.24-83.92,100.26-106.24h121.45c4.73.01,8.56,3.85,8.56,8.58Z"/>
  <path class="cls-2" d="m628.24,56.33H173.95c-1-.02-1.79-.85-1.77-1.85.02-.97.8-1.75,1.77-1.77h454.29c1,.02,1.79.85,1.77,1.85-.02.97-.8,1.75-1.77,1.77Z"/>
  <ellipse class="cls-7" cx="204.87" cy="32.67" rx="10.59" ry="10.82"/>
  <ellipse class="cls-7" cx="241.45" cy="32.67" rx="10.59" ry="10.82"/>
  <ellipse class="cls-7" cx="278.02" cy="32.67" rx="10.59" ry="10.82"/>
  <path class="cls-4" d="m606.22,24.53h-25.98c-1.09.02-1.95.92-1.93,2.01.02,1.06.87,1.91,1.93,1.93h25.98c1.09-.02,1.95-.92,1.93-2.01-.02-1.06-.87-1.91-1.93-1.93Z"/>
  <path class="cls-4" d="m606.22,31.91h-25.98c-1.09.02-1.95.92-1.93,2.01.02,1.06.87,1.91,1.93,1.93h25.98c1.09-.02,1.95-.92,1.93-2.01-.02-1.06-.87-1.91-1.93-1.93Z"/>
  <path class="cls-4" d="m606.22,39.28h-25.98c-1.09.02-1.95.92-1.93,2.01.02,1.06.87,1.91,1.93,1.93h25.98c1.09-.02,1.95-.92,1.93-2.01-.02-1.06-.87-1.91-1.93-1.93Z"/>
  <rect class="cls-7" x="245.18" y="161.87" width="72.21" height="15.44" rx="4.34" ry="4.34"/>
  <rect class="cls-6" x="208.51" y="192.75" width="145.55" height="15.44" rx="4.34" ry="4.34"/>
  <rect class="cls-6" x="208.51" y="223.63" width="145.55" height="15.44" rx="4.34" ry="4.34"/>
  <path class="cls-7" d="m220.39,335c.01,6.36-1.12,12.67-3.35,18.63h-49.91c-4.72,0-8.55-3.84-8.56-8.56v-62.77c2.79-.45,5.61-.68,8.43-.68,29.48,0,53.38,23.89,53.38,53.37h0Z"/>
  <path class="cls-5" d="m661.65,122.35v-4.55h-76.35v-52.79h-4.54v52.79h-87.51v-52.79h-4.54v52.79h-57.79c-.64,1.51-1.26,3.02-1.85,4.55h59.64v89.28h-74.05c.07,1.53.18,3.04.3,4.55h73.75v71.22h-55.25c.68,1.53,1.39,3.04,2.14,4.54h53.11v59.87h4.54v-59.87h87.51v59.87h4.54v-59.87h76.35v-4.54h-76.35c0-39.34,31.89-71.22,71.22-71.22h5.12v-4.55h-76.35v-89.28h76.35Zm-80.89,165.06h-87.51v-71.22h87.51v71.22Zm0-75.78h-87.51v-1.78c0-48.33,39.18-87.51,87.51-87.51h0v89.28Z"/>
  <path class="cls-4" d="m600.18,319.92c-2.62.12-4.85-1.91-4.97-4.53-.06-1.4.49-2.76,1.52-3.71.12-.48.21-.82.33-1.3-.04-.1-.09-.21-.13-.31-4.38-10.44-19.21-10.37-23.55.09-3.85,9.28-8.76,18.57-9.96,28.38-.53,4.34-.31,8.73.66,12.99-9.05-19.74-13.75-41.19-13.78-62.9,0-5.45.3-10.89.91-16.31.5-4.44,1.2-8.85,2.08-13.22,4.85-23.74,15.26-45.99,30.38-64.93,7.32-3.99,13.24-10.13,16.96-17.59,1.35-2.68,2.3-5.54,2.83-8.5-.83.11-1.66.18-2.49.23-.26.01-.53.03-.78.04h-.1c-2.6.12-4.8-1.89-4.92-4.49-.05-1.15.32-2.28,1.05-3.18.36-.44.71-.88,1.07-1.32.54-.68,1.1-1.34,1.64-2.02.06-.06.12-.13.18-.2.62-.77,1.24-1.53,1.87-2.3-1.14-1.76-2.66-3.24-4.47-4.32-6.24-3.65-14.85-1.12-19.35,4.52-4.52,5.64-5.37,13.56-3.8,20.61,1.34,6.04,4.26,11.57,7.55,16.83-.34.43-.69.85-1.03,1.29-6.18,7.95-11.57,16.49-16.09,25.5,1.1-10.09-.21-20.29-3.83-29.77-3.66-8.84-10.53-16.28-16.57-23.92-7.26-9.18-22.15-5.17-23.43,6.46-.01.11-.02.23-.04.34.9.51,1.78,1.04,2.64,1.61,2.96,1.98,3.76,5.98,1.78,8.95-1,1.5-2.59,2.52-4.38,2.79l-.13.02c.32,3.24.89,6.44,1.69,9.59,4.72,17.78,16.64,32.79,32.9,41.41.53.27,1.04.54,1.57.8-4.54,12.87-7.39,26.27-8.47,39.87-.61,8.02-.58,16.08.11,24.1l-.04-.28c-1.73-8.92-6.49-16.96-13.47-22.78-10.36-8.51-25-11.65-36.18-18.49-5.38-3.29-12.28.96-11.34,7.2.01.1.03.2.05.3,1.67.68,3.29,1.46,4.86,2.34.9.51,1.78,1.04,2.64,1.61,2.96,1.98,3.76,5.98,1.78,8.95-1,1.5-2.59,2.52-4.38,2.79l-.13.02c-.09.01-.18.03-.27.04,2.85,6.8,6.84,13.06,11.81,18.5,12.41,13.32,29.76,20.93,47.96,21.04h.01c2.44,10.62,5.99,20.96,10.57,30.85h37.76c.14-.42.26-.85.38-1.27-3.49.22-7,.01-10.45-.62,2.8-3.44,5.6-6.9,8.4-10.34.06-.06.12-.13.18-.2,1.42-1.76,2.86-3.5,4.28-5.26h0c.08-5.39-.54-10.77-1.84-16.01h0Zm-43.24-85.05l.02-.03-.02.05v-.03Zm-8.36,75.39l-.32-.73c.01-.53.01-1.06,0-1.6,0-.15-.03-.3-.03-.45.12.93.23,1.87.37,2.8v-.03Z"/>
  <path class="cls-6" d="m263.97,231.61h0v-50.74c0-16.22-13.15-29.37-29.37-29.37h-107.51c-16.22,0-29.37,13.15-29.37,29.37h0v278.38c0,16.22,13.15,29.37,29.37,29.37h107.51c16.22,0,29.37-13.15,29.37-29.37v-191.52h0c1.02,0,1.85-.83,1.85-1.85v-32.42c0-1.02-.83-1.85-1.85-1.85Z"/>
  <path class="cls-1" d="m257.72,181.07v277.98c0,12.02-9.67,21.79-21.69,21.92-.08,0-.16.01-.24.01h-108.03c-12.11,0-21.93-9.82-21.93-21.93V181.07c0-12.11,9.82-21.93,21.93-21.93h13.11c-2.17,5.33.39,11.42,5.72,13.59,1.25.51,2.58.77,3.93.77h61.59c5.76-.02,10.42-4.7,10.41-10.46,0-1.34-.26-2.66-.77-3.9h14.04c12.11,0,21.93,9.82,21.93,21.93Z"/>
  <path class="cls-8" d="m236.3,472.4c0,2.88-.09,5.74-.27,8.57-.08,0-.16.01-.24.01h-108.03c-12.11,0-21.93-9.82-21.93-21.93v-123.88c73.1,3.69,130.48,64.04,130.47,137.23Z"/>
  <path class="cls-6" d="m98.32,260c-1.38,0-2.5-1.12-2.5-2.5v-17c0-1.38,1.12-2.5,2.5-2.5s2.5,1.12,2.5,2.5v17c0,1.38-1.12,2.5-2.5,2.5Z"/>
  <rect class="cls-7" x="164.17" y="246.43" width="35.21" height="15.44" rx="4.34" ry="4.34"/>
  <rect class="cls-6" x="127.5" y="277.31" width="108.55" height="15.44" rx="4.34" ry="4.34"/>
  <rect class="cls-6" x="127.5" y="308.19" width="108.55" height="15.44" rx="4.34" ry="4.34"/>
  <path class="cls-7" d="m207.68,465.16c-1.23.06-2.27-.9-2.33-2.13-.03-.66.23-1.29.71-1.74l.15-.61s-.04-.1-.06-.15c-1.29-3.05-4.81-4.47-7.85-3.18-1.45.61-2.6,1.77-3.2,3.22-1.81,4.35-4.11,8.72-4.68,13.32-.25,2.03-.14,4.1.31,6.1-4.25-9.26-6.45-19.33-6.46-29.52,0-2.56.14-5.11.43-7.65.23-2.08.56-4.15.98-6.2,2.28-11.14,7.16-21.58,14.26-30.47,3.43-1.87,6.21-4.75,7.96-8.26.63-1.26,1.08-2.6,1.33-3.99-.39.05-.78.08-1.17.11-.12,0-.25.01-.37.02h-.05c-1.22.06-2.25-.89-2.31-2.11-.02-.54.15-1.07.49-1.49.17-.21.33-.41.5-.62.25-.32.51-.63.77-.95.03-.03.06-.06.08-.1.29-.36.58-.72.88-1.08-.53-.83-1.25-1.52-2.1-2.03-2.93-1.71-6.97-.53-9.08,2.12-2.12,2.65-2.52,6.36-1.78,9.67.72,2.82,1.92,5.49,3.54,7.9-.16.2-.32.4-.48.6-2.9,3.73-5.43,7.74-7.55,11.96.52-4.73-.1-9.52-1.8-13.97-1.72-4.15-4.94-7.64-7.78-11.22-2.1-2.69-5.98-3.17-8.66-1.07-1.29,1.01-2.13,2.48-2.33,4.11,0,.05-.01.11-.02.16.42.24.83.49,1.24.76,1.39.93,1.76,2.81.84,4.2-.47.71-1.22,1.18-2.06,1.31h-.06c.15,1.53.42,3.03.79,4.51,2.22,8.34,7.81,15.39,15.44,19.43.25.13.49.25.74.37-2.13,6.04-3.47,12.33-3.98,18.71-.29,3.77-.27,7.55.05,11.31l-.02-.13c-.81-4.18-3.04-7.96-6.32-10.69-4.86-3.99-11.73-5.47-16.98-8.68-1.61-1.04-3.76-.57-4.8,1.05-.44.69-.63,1.52-.52,2.33l.02.14c.78.32,1.54.69,2.28,1.1.42.24.83.49,1.24.76,1.39.93,1.76,2.81.84,4.2-.47.71-1.22,1.18-2.06,1.31h-.06s-.08.02-.13.03c1.34,3.19,3.21,6.13,5.54,8.68,5.82,6.25,13.96,9.82,22.51,9.87h0c1.15,4.99,2.81,9.84,4.96,14.48h17.72c.06-.2.12-.4.18-.6-1.64.1-3.29,0-4.9-.29,1.31-1.61,2.63-3.24,3.94-4.85.03-.03.06-.06.08-.1.67-.83,1.34-1.64,2.01-2.47h0c.04-2.53-.25-5.06-.86-7.51h0Zm-20.29-39.91h0s0,.01,0,.01h0Zm-3.92,35.38l-.15-.34c0-.25,0-.5,0-.75,0-.07-.01-.14-.01-.21.06.44.11.88.17,1.31h0Z"/>
  <path class="cls-6" d="m97.82,227c-1.38,0-2.5-1.12-2.5-2.5v-17c0-1.38,1.12-2.5,2.5-2.5s2.5,1.12,2.5,2.5v17c0,1.38-1.12,2.5-2.5,2.5Z"/>
  <path class="cls-1" d="m164.32,162c0-1.38,1.12-2.5,2.5-2.5h17c1.38,0,2.5,1.12,2.5,2.5s-1.12,2.5-2.5,2.5h-17c-1.38,0-2.5-1.12-2.5-2.5Z"/>
  <path class="cls-6" d="m98.32,289c-1.38,0-2.5-1.12-2.5-2.5v-17c0-1.38,1.12-2.5,2.5-2.5s2.5,1.12,2.5,2.5v17c0,1.38-1.12,2.5-2.5,2.5Z"/>
  <circle class="cls-1" cx="193.32" cy="162" r="2.5"/>
  <path class="cls-4" d="m858.93,488.61l-857.75.31c-.66,0-1.19-.54-1.18-1.2,0-.65.53-1.18,1.18-1.18l857.75-.31c.66,0,1.19.54,1.19,1.19,0,.65-.53,1.18-1.19,1.19Z"/>
</svg>